<svg xmlns="http://www.w3.org/2000/svg" viewBox="0 0 32 32" fill="none">
  <defs>
    <linearGradient id="globeGrad" x1="0%" y1="0%" x2="100%" y2="100%">
      <stop offset="0%" style="stop-color:#4A6FA5"/>
      <stop offset="100%" style="stop-color:#1E3A5F"/>
    </linearGradient>
  </defs>
  
  <!-- Globe ring -->
  <circle cx="16" cy="13" r="11" fill="none" stroke="url(#globeGrad)" stroke-width="2"/>
  
  <!-- Globe inner -->
  <circle cx="16" cy="13" r="9" fill="#E8EEF5"/>
  
  <!-- Continent hint -->
  <path d="M 12 9 Q 10 11 11 14 Q 12 16 14 15 Q 15 13 14 10 Q 13 8 12 9 Z" fill="#8899AA" opacity="0.6"/>
  <path d="M 18 8 Q 20 10 20 13 Q 19 16 18 14 Q 17 11 18 8 Z" fill="#8899AA" opacity="0.6"/>
  
  <!-- Bird -->
  <path d="M 20 11 Q 22 9 22 8 Q 21 7 19 8 Q 17 10 15 12 Q 14 14 15 14 Q 17 14 20 11 Z" fill="#1A1A1A"/>
  <!-- Wing -->
  <path d="M 17 10 Q 14 7 11 6 Q 9 6 9 7 Q 9 8 11 9 Q 14 10 17 10 Z" fill="#1A1A1A"/>
  <!-- Feathers -->
  <path d="M 11 6 Q 9 5 8 6 Q 9 7 10 7 Z" fill="#1A1A1A"/>
  <path d="M 10 7 Q 8 7 7 8 Q 8 9 10 8 Z" fill="#1A1A1A"/>
  <!-- Head -->
  <ellipse cx="21.5" cy="8.5" rx="1.5" ry="1.3" fill="#1A1A1A"/>
  <!-- Beak -->
  <path d="M 23 8 L 25 7 L 23 9 Z" fill="#1A1A1A"/>
  
  <!-- Location Pin -->
  <path d="M 16 22 Q 13 23 12 26 Q 12 28 14 29 Q 16 30 18 29 Q 20 28 20 26 Q 19 23 16 22 Z" fill="#1A1A1A"/>
  <circle cx="16" cy="26" r="2" fill="white"/>
  <circle cx="16" cy="26" r="1" fill="#CCCCCC"/>
</svg>
