<svg xmlns="http://www.w3.org/2000/svg" viewBox="0 0 200 240" fill="none">
  <defs>
    <linearGradient id="globeGradient" x1="0%" y1="0%" x2="100%" y2="100%">
      <stop offset="0%" style="stop-color:#4A6FA5"/>
      <stop offset="50%" style="stop-color:#2E4A7D"/>
      <stop offset="100%" style="stop-color:#1E3A5F"/>
    </linearGradient>
    <linearGradient id="globeInner" x1="0%" y1="0%" x2="100%" y2="100%">
      <stop offset="0%" style="stop-color:#E8EEF5"/>
      <stop offset="100%" style="stop-color:#C5D3E8"/>
    </linearGradient>
    <linearGradient id="pinGradient" x1="0%" y1="0%" x2="0%" y2="100%">
      <stop offset="0%" style="stop-color:#3D3D3D"/>
      <stop offset="100%" style="stop-color:#1A1A1A"/>
    </linearGradient>
  </defs>
  
  <!-- Globe outer ring -->
  <circle cx="100" cy="85" r="75" fill="none" stroke="url(#globeGradient)" stroke-width="8"/>
  
  <!-- Globe inner fill -->
  <circle cx="100" cy="85" r="67" fill="url(#globeInner)"/>
  
  <!-- Continents (simplified) -->
  <!-- North America -->
  <path d="M 55 45 Q 50 50 48 60 Q 45 70 50 80 Q 55 85 60 82 Q 65 78 70 75 Q 75 72 72 65 Q 70 55 65 48 Q 60 42 55 45 Z" fill="#8899AA" opacity="0.7"/>
  <!-- South America -->
  <path d="M 65 95 Q 60 100 58 110 Q 55 120 60 130 Q 65 138 70 135 Q 75 130 73 120 Q 72 110 70 100 Q 68 95 65 95 Z" fill="#8899AA" opacity="0.7"/>
  <!-- Europe/Africa -->
  <path d="M 115 50 Q 120 55 125 65 Q 128 75 125 85 Q 122 95 120 105 Q 118 115 122 125 Q 126 132 130 128 Q 135 120 138 110 Q 140 100 138 90 Q 135 80 130 70 Q 125 60 120 52 Q 115 48 115 50 Z" fill="#8899AA" opacity="0.7"/>
  
  <!-- Flying Bird -->
  <!-- Bird body -->
  <path d="M 130 70 Q 140 65 145 55 Q 148 48 145 45 Q 140 42 130 48 Q 120 55 110 65 Q 100 75 95 82 Q 92 88 95 90 Q 100 92 110 88 Q 120 82 130 70 Z" fill="#1A1A1A"/>
  
  <!-- Bird wing (upper) -->
  <path d="M 110 65 Q 100 50 85 35 Q 75 28 65 30 Q 58 32 55 38 Q 52 45 58 50 Q 65 55 75 58 Q 85 60 95 65 Q 105 70 110 65 Z" fill="#1A1A1A"/>
  
  <!-- Bird wing feathers -->
  <path d="M 65 30 Q 55 25 45 28 Q 50 35 58 40 Z" fill="#1A1A1A"/>
  <path d="M 58 38 Q 48 35 40 40 Q 48 45 55 48 Z" fill="#1A1A1A"/>
  <path d="M 55 45 Q 45 45 38 52 Q 48 52 55 50 Z" fill="#1A1A1A"/>
  
  <!-- Bird tail -->
  <path d="M 95 85 Q 85 90 75 95 Q 70 98 72 102 Q 78 100 88 95 Q 95 90 95 85 Z" fill="#1A1A1A"/>
  <path d="M 95 88 Q 88 95 82 102 Q 80 108 85 108 Q 90 105 95 98 Q 98 92 95 88 Z" fill="#1A1A1A"/>
  
  <!-- Bird head -->
  <ellipse cx="142" cy="50" rx="8" ry="7" fill="#1A1A1A"/>
  
  <!-- Bird beak -->
  <path d="M 148 48 L 160 42 L 150 52 Z" fill="#1A1A1A"/>
  
  <!-- Location Pin -->
  <path d="M 100 150 Q 85 155 80 170 Q 78 180 85 188 Q 92 195 100 200 Q 108 195 115 188 Q 122 180 120 170 Q 115 155 100 150 Z" fill="url(#pinGradient)"/>
  
  <!-- Pin inner circle -->
  <circle cx="100" cy="172" r="10" fill="white"/>
  <circle cx="100" cy="172" r="6" fill="#E0E0E0"/>
  
  <!-- Pin shadow/base -->
  <ellipse cx="100" cy="225" rx="25" ry="8" fill="url(#globeGradient)" opacity="0.5"/>
  
  <!-- Pin point -->
  <path d="M 95 198 L 100 220 L 105 198 Q 100 202 95 198 Z" fill="url(#pinGradient)"/>
</svg>
